# xmcd CD database file
#
# Track frame offsets:
#	150
#	22050
#	41326
#	58978
#	78604
#	98486
#	116976
#	137004
#	161538
#	180338
#	199533
#	218358
#	238889
#	260514
#	283050
#	304140
#
# Disc length: 4356 seconds
#
# Revision: 7
# Processed by: cddbd v1.5.2PL0 Copyright (c) Steve Scherf et al.
# Submitted via: CDex 1.70beta3
#
DISCID=e0110210
DTITLE=林原めぐみ - VINTAGE White (Disc1)
DYEAR=2011
DGENRE=JPop
TTITLE0=夜明けのShooting Star
TTITLE1=虹色のSneaker
TTITLE2=君のAnswer
TTITLE3=BECAUSE
TTITLE4=Bon Voyage！
TTITLE5=Life-
TTITLE6=Give a reason
TTITLE7=I'll be there
TTITLE8=Successful Mission
TTITLE9=はなれていても
TTITLE10=don't be discouraged
TTITLE11=Good Luck！
TTITLE12=Thirty
TTITLE13=raging waves
TTITLE14=君に逢えてよかった
TTITLE15=雨のち曇りのち晴れ…
EXTD=YEAR: 2011
EXTT0=
EXTT1=
EXTT2=
EXTT3=
EXTT4=
EXTT5=
EXTT6=
EXTT7=
EXTT8=
EXTT9=
EXTT10=
EXTT11=
EXTT12=
EXTT13=
EXTT14=
EXTT15=
PLAYORDER=
